<svg width="1920" height="684" viewBox="0 0 1920 684" fill="none" xmlns="http://www.w3.org/2000/svg">
<ellipse cx="960" cy="204.761" rx="1130.04" ry="478.36" fill="url(#paint0_linear_8_2)"/>
<circle cx="737.622" cy="295.717" r="160.39" transform="rotate(-146.365 737.622 295.717)" fill="url(#paint1_linear_8_2)"/>
<circle cx="1318.55" cy="587.929" r="60.2484" transform="rotate(-90.7564 1318.55 587.929)" fill="url(#paint2_linear_8_2)" fill-opacity="0.45"/>
<circle cx="87.1141" cy="73.3384" r="110.732" fill="url(#paint3_linear_8_2)" fill-opacity="0.75"/>
<circle cx="87.1141" cy="73.3384" r="110.732" fill="url(#paint4_linear_8_2)" fill-opacity="0.01"/>
<circle cx="87.1141" cy="73.3384" r="108.517" stroke="white" stroke-opacity="0.02" stroke-width="4.42928"/>
<circle cx="1746.74" cy="91.3465" r="42.6543" transform="rotate(-10.6294 1746.74 91.3465)" fill="url(#paint5_linear_8_2)" fill-opacity="0.85"/>
<circle cx="1872.87" cy="49.4414" r="28.634" transform="rotate(175.968 1872.87 49.4414)" fill="url(#paint6_linear_8_2)" fill-opacity="0.85"/>
<defs>
<linearGradient id="paint0_linear_8_2" x1="960" y1="-273.599" x2="960" y2="856.44" gradientUnits="userSpaceOnUse">
<stop offset="0.255208" stop-color="#151640"/>
<stop offset="1" stop-color="#4CDF34"/>
</linearGradient>
<linearGradient id="paint1_linear_8_2" x1="1033.28" y1="536.761" x2="684.204" y2="318.59" gradientUnits="userSpaceOnUse">
<stop stop-color="#C4C4C4"/>
<stop offset="1" stop-color="#C4C4C4" stop-opacity="0"/>
</linearGradient>
<linearGradient id="paint2_linear_8_2" x1="1429.61" y1="678.474" x2="1298.49" y2="596.521" gradientUnits="userSpaceOnUse">
<stop stop-color="#C4C4C4"/>
<stop offset="1" stop-color="#C4C4C4" stop-opacity="0"/>
</linearGradient>
<linearGradient id="paint3_linear_8_2" x1="291.232" y1="239.753" x2="50.2351" y2="89.13" gradientUnits="userSpaceOnUse">
<stop stop-color="#C4C4C4"/>
<stop offset="1" stop-color="#C4C4C4" stop-opacity="0"/>
</linearGradient>
<linearGradient id="paint4_linear_8_2" x1="291.232" y1="239.753" x2="50.2351" y2="89.13" gradientUnits="userSpaceOnUse">
<stop stop-color="#C4C4C4"/>
<stop offset="1" stop-color="#C4C4C4" stop-opacity="0"/>
</linearGradient>
<linearGradient id="paint5_linear_8_2" x1="1825.37" y1="155.45" x2="1750.97" y2="97.9891" gradientUnits="userSpaceOnUse">
<stop stop-color="#C4C4C4"/>
<stop offset="0.916667" stop-color="#C4C4C4" stop-opacity="0"/>
</linearGradient>
<linearGradient id="paint6_linear_8_2" x1="1925.65" y1="92.4743" x2="1863.33" y2="53.5249" gradientUnits="userSpaceOnUse">
<stop stop-color="#C4C4C4"/>
<stop offset="0.869792" stop-color="#C4C4C4" stop-opacity="0"/>
</linearGradient>
</defs>
</svg>
